<?xml version="1.0" standalone="no"?>
<!DOCTYPE svg PUBLIC "-//W3C//DTD SVG 20010904//EN"
 "http://www.w3.org/TR/2001/REC-SVG-20010904/DTD/svg10.dtd">
<svg version="1.0" xmlns="http://www.w3.org/2000/svg"
 width="70.000000pt" height="70.000000pt" viewBox="0 0 70.000000 70.000000"
 preserveAspectRatio="xMidYMid meet">
<metadata>
Created by potrace 1.14, written by Peter Selinger 2001-2017
</metadata>
<g transform="translate(0.000000,70.000000) scale(0.100000,-0.100000)"
fill="#000000" stroke="none">
<path d="M265 630 c-16 -10 -36 -19 -44 -19 -45 -3 -165 -150 -146 -180 4 -7
1 -10 -7 -9 -9 2 -14 -15 -16 -64 -2 -43 1 -68 8 -68 5 0 10 -7 10 -15 0 -23
38 -94 66 -122 13 -13 24 -28 24 -34 0 -6 5 -7 11 -4 5 4 18 -3 29 -15 10 -12
21 -21 24 -21 21 2 65 -13 60 -20 -3 -5 2 -9 11 -9 10 0 13 5 9 12 -6 10 -4
10 8 0 17 -14 110 -14 102 0 -3 4 3 8 14 8 10 0 22 3 26 8 4 4 11 8 14 8 27 6
51 17 48 23 -3 4 9 13 25 20 17 7 28 15 25 18 -2 3 3 13 12 23 34 37 41 48 35
54 -4 3 -1 6 5 6 7 0 11 3 11 8 -4 22 2 42 11 37 6 -4 10 22 10 70 0 55 -4 77
-14 81 -8 3 -12 13 -9 25 3 10 0 19 -6 19 -6 0 -11 7 -11 15 0 8 -5 15 -12 15
-6 0 -9 3 -5 6 8 9 -63 84 -80 84 -7 0 -13 5 -13 10 0 6 -9 10 -21 10 -11 0
-18 4 -15 8 2 4 -5 9 -17 9 -12 1 -23 7 -25 13 -6 18 -124 11 -157 -10z"/>
</g>
</svg>
